# xmcd
#
# Track frame offsets: 
#        150
#        19651
#        40448
#        58893
#        76654
#        94027
#        116016
#        141029
#        159230
#        175959
#        194304
#
# Disc length: 2770 seconds
#
# Revision: 0
# Processed by: cddbd v1.5.1PL0 Copyright (c) Steve Scherf et al.
# Submitted via: ExactAudioCopy v0.95b3
#
DISCID=890ad00b
DTITLE=Blue Mama - Yin Yang Blues
DYEAR=2003
DGENRE=Blues
TTITLE0=Little Red Rooster
TTITLE1=Help Me
TTITLE2=Kansas City
TTITLE3=Blues For Mama
TTITLE4=Route 66
TTITLE5=Theme For An Imaginary Western
TTITLE6=How Blue Can You Get
TTITLE7=Going Down
TTITLE8=Inner City Blues
TTITLE9=St. Louis Blues
TTITLE10=Hound Dog
EXTD=
EXTT0=
EXTT1=
EXTT2=
EXTT3=
EXTT4=
EXTT5=
EXTT6=
EXTT7=
EXTT8=
EXTT9=
EXTT10=
PLAYORDER=
